::::::::::::::Enjoy:Another:Release:From:T0XiC::::::::::::::
File::The.Tourist.2010.TS.XViD-T0XiC-iNK
Video: The Tourist 2010 TRUEFRENCH TS MD XviD-SERENiTY (thanks)
Audio: Our Own (T0XiC)
Language::English


 
Revolves around Frank, an American tourist visiting Italy to mend a broken heart. Elise is an extraordinary woman who deliberately crosses his path.

  
http://www.imdb.com/title/tt1243957/


 
General
Format : AVI
Format/Info : Audio Video Interleave
File size : 846 MiB
Duration : 1h 35mn
Overall bit rate : 1 232 Kbps

Video
ID : 0
Format : MPEG-4 Visual
Format profile : Advanced Simple@L5
Format settings, BVOP : Yes
Format settings, QPel : No
Format settings, GMC : No warppoints
Format settings, Matrix : Custom
Codec ID : XVID
Codec ID/Hint : XviD
Duration : 1h 35mn
Bit rate : 1 062 Kbps
Width : 704 pixels
Height : 302 pixels
Display aspect ratio : 2.35:1
Frame rate : 25.000 fps
Color space : YUV
Chroma subsampling : 4:2:0
Bit depth : 8 bits
Scan type : Progressive
Bits/(Pixel*Frame) : 0.200
Stream size : 729 MiB (86%)
Writing library : XviD 1.2.0.dev47 (UTC 2006-11-01)

Audio
ID : 1
Format : MPEG Audio
Format version : Version 1
Format profile : Layer 3
Codec ID : 55
Codec ID/Hint : MP3
Duration : 1h 35mn
Bit rate mode : Constant
Bit rate : 160 Kbps
Channel(s) : 2 channels
Sampling rate : 44.1 KHz
Stream size : 110 MiB (13%)
Alignment : Split accross interleaves
Interleave, duration : 40 ms (1.00 video frame)
Interleave, preload duration : 500 ms



NOTES:: Really nice cam but had a few problems such as the colouring and 

brightness but i feel i got the ballance right in the end.

Once again beautiful work by iNK on our audio, so the improved quality and 

syncing of the audio goes to him, thanks mate 

Thanks to IMAGiNE/stash for the subs

This IS IN SYNC....

Make sure you check the sample before you comment or download. enjoy








================================== 
http://thepiratebay.org/user/hiest
==================================








Screenshots:
 
http://img221.imageshack.us/img221/5779/21290398.jpg
 
http://img256.imageshack.us/img256/5066/90469890.jpg
 
http://img692.imageshack.us/img692/6612/58292722.jpg